<?xml version="1.0" encoding="UTF-8"?>
<svg id="_图层_1" data-name="图层 1" xmlns="http://www.w3.org/2000/svg" viewBox="0 0 79.98 77.76">
  <defs>
    <style>
      .cls-1 {
        fill: #00a0e9;
      }
    </style>
  </defs>
  <path class="cls-1" d="M25.84,16.67h8.32V53.18c0,6.24,2.51,11.9,6.57,16.03,3.18-3.93,5.09-8.93,5.09-14.37V0L25.84,16.67Z"/>
  <g>
    <path class="cls-1" d="M45.82,52.98v.21c0-.07,.02-.14,.02-.21h-.02Z"/>
    <path class="cls-1" d="M57.07,30.27c-3.24,0-6.3,.71-9.1,1.93v14.43c2.05-2.83,5.35-4.69,9.1-4.69,6.2,0,11.25,5.05,11.25,11.25s-5.05,11.25-11.25,11.25-11.25-5.05-11.25-11.25v1.67c0,5.44-1.91,10.43-5.09,14.37,4.16,4.24,9.94,6.88,16.34,6.88,12.63,0,22.91-10.28,22.91-22.91s-10.28-22.91-22.91-22.91Z"/>
  </g>
  <path class="cls-1" d="M38.98,70.35c-2.87-2.92-4.94-6.61-5.92-10.72-1.8,3.81-5.65,6.47-10.14,6.47-6.2,0-11.25-5.05-11.25-11.25V28.61L0,40.27v14.58c0,12.63,10.28,22.91,22.91,22.91,6.47,0,12.3-2.71,16.47-7.04-.13-.13-.27-.24-.4-.37Z"/>
  <circle class="cls-1" cx="57.07" cy="53.18" r="8.05"/>
</svg>