<?xml version="1.0" encoding="UTF-8"?>
<svg id="_图层_1" data-name="图层 1" xmlns="http://www.w3.org/2000/svg" viewBox="0 0 295.95 77.76">
  <defs>
    <style>
      .cls-1 {
        fill: #00a0e9;
      }
    </style>
  </defs>
  <g>
    <g>
      <rect class="cls-1" x="94.37" y="55.02" width="10.07" height="1.34"/>
      <polygon class="cls-1" points="94.54 72.12 94.19 70.8 103.53 69.06 103.35 70.44 94.54 72.12"/>
      <polygon class="cls-1" points="98.05 70.45 95.15 71.12 95.15 56.36 98.05 56.36 98.05 70.45"/>
      <rect class="cls-1" x="100.97" y="55.85" width="2.9" height="16.7"/>
      <rect class="cls-1" x="96.13" y="58.9" width="6.55" height="1.34"/>
      <rect class="cls-1" x="95.87" y="62.92" width="6.55" height="1.34"/>
      <rect class="cls-1" x="106.55" y="55.29" width="2.9" height="2.31"/>
      <polygon class="cls-1" points="107.09 72.55 104.44 72.5 109.82 62.5 109.82 57.61 112.73 57.61 112.73 63.28 107.09 72.55"/>
      <rect class="cls-1" x="112.99" y="55.29" width="2.9" height="2.31"/>
      <rect class="cls-1" x="105.21" y="56.57" width="11.92" height="1.34"/>
      <rect class="cls-1" x="105.03" y="62.32" width="12.15" height="1.34"/>
      <polygon class="cls-1" points="115.88 72.55 111.29 67.27 112.83 64.72 118.46 72.55 115.88 72.55"/>
      <path class="cls-1" d="M132.52,72.55h-8.32c-1.83,0-3.31-1.37-3.31-3.06v-9.5h11.63v8.51h-2.9v-7.17h-5.83v9.5c0,.21,.18,.38,.41,.38h8.32v1.34Z"/>
      <rect class="cls-1" x="135.12" y="55.96" width="2.9" height="12.53"/>
      <path class="cls-1" d="M140.69,72.55h-5.58v-1.34h5.58c.27,0,.49-.2,.49-.45v-15.46h2.9v14.12c0,1.73-1.52,3.13-3.39,3.13Z"/>
      <rect class="cls-1" x="147.52" y="56.32" width="20.8" height="1.34"/>
      <rect class="cls-1" x="156.47" y="55.29" width="2.9" height="11.9"/>
      <polygon class="cls-1" points="150.19 66.58 156.19 56.76 152.6 56.85 147.52 66.58 150.19 66.58"/>
      <polygon class="cls-1" points="168.92 66.58 163.44 57.07 159.69 57.07 166.16 66.58 168.92 66.58"/>
      <polygon class="cls-1" points="149.76 72.55 151.14 68.46 149.4 68.46 146.36 72.55 149.76 72.55"/>
      <polygon class="cls-1" points="157.6 72.55 155.04 68.46 153.19 68.46 154.39 72.55 157.6 72.55"/>
      <polygon class="cls-1" points="163.93 72.55 161.36 68.46 159.51 68.46 160.71 72.55 163.93 72.55"/>
      <polygon class="cls-1" points="170.46 72.55 167.9 68.46 166.05 68.46 167.25 72.55 170.46 72.55"/>
      <path class="cls-1" d="M178.13,57.64h-5.55v-1.34h5.55c.83,0,1.58-.39,2.02-1.04l.07-.1,2.46,1.42-.07,.1c-.67,1.19-2.65,.96-4.48,.96Z"/>
      <rect class="cls-1" x="176.27" y="56.82" width="2.9" height="15.73"/>
      <rect class="cls-1" x="172.58" y="59.5" width="10.29" height="1.34"/>
      <rect class="cls-1" x="172.94" y="61.84" width="1.45" height="10.71"/>
      <rect class="cls-1" x="180.98" y="61.84" width="1.45" height="10.71"/>
      <rect class="cls-1" x="183.42" y="58.16" width="6.85" height="1.34"/>
      <rect class="cls-1" x="183.48" y="61.24" width="6.85" height="1.34"/>
      <rect class="cls-1" x="183.42" y="67.19" width="11.51" height="1.34"/>
      <rect class="cls-1" x="191.11" y="55.29" width="2.9" height="17.25"/>
      <path class="cls-1" d="M198.85,72.55h-1.45v-1.34h1.45c.58,0,1.05-.44,1.05-.97v-14.94h2.9v13.6c0,2.01-1.77,3.65-3.95,3.65Z"/>
      <rect class="cls-1" x="197.4" y="57.29" width="7.22" height="1.34"/>
      <rect class="cls-1" x="197.4" y="63.02" width="7.03" height="1.34"/>
      <rect class="cls-1" x="204.44" y="56.65" width="15.73" height="1.34"/>
      <rect class="cls-1" x="210.85" y="55.29" width="2.9" height="5.95"/>
      <polygon class="cls-1" points="204.92 60.5 204.92 64.25 219.25 72.55 220.14 71.65 207.82 62.91 207.82 61.84 216.53 61.84 216.53 62.69 204.47 71.38 205.16 72.37 219.44 64.25 219.44 60.5 204.92 60.5"/>
      <path class="cls-1" d="M123.12,58.9l.32-2.31c.03-.13,.16-.23,.31-.23h5.91c.15,0,.28,.09,.31,.23l.32,2.31h2.9l-.38-1.57c-.33-1.36-1.62-2.31-3.14-2.31h-5.91c-1.51,0-2.8,.95-3.14,2.31l-.38,1.57h2.9Z"/>
    </g>
    <g>
      <path class="cls-1" d="M135.01,34.89c-.89-.69-1.98-1.03-3.26-1.03l-13.76-.02h-4.6v8.04h.04v1.77c0,.53-.31,1-.94,1.4-.62,.4-1.33,.6-2.1,.6h-9.58c-.88,0-1.6-.2-2.19-.58-.58-.39-.87-.84-.87-1.36v-9.87h-3.65v10.62c0,.97,.45,1.8,1.34,2.49,.89,.69,1.98,1.03,3.26,1.03h13.76c1.28,0,2.37-.34,3.26-1.03,.89-.69,1.34-1.52,1.34-2.49v-6.53h-.04l-.02-1.86h12.57c.86,0,1.57,.19,2.14,.56,.57,.37,.91,.8,1.02,1.29v2.72l-.02,7.34h3.65v-10.6c0-.97-.45-1.8-1.34-2.49Z"/>
      <rect class="cls-1" x="138.95" y="33.83" width="3.65" height="2.24"/>
      <polygon class="cls-1" points="138.95 47.98 142.59 47.98 142.59 42.2 142.59 37.91 138.95 37.91 138.95 47.98"/>
      <path class="cls-1" d="M166.88,34.77c-.88-.62-1.97-.93-3.28-.91l-13.76-.02h-4.6v2.24h19.16v3.58h-19.16v8.33h18.33c1.33,0,2.43-.31,3.31-.94,.87-.62,1.31-1.56,1.31-2.81v-1.25c-.07-.94-.86-1.83-2.38-1.96,1.52-.29,2.32-1.24,2.38-2.18v-1.28c0-1.25-.44-2.19-1.31-2.81Zm-2.48,10.97h-15.51v-3.69h15.51v3.69Z"/>
      <path class="cls-1" d="M170.8,40.5v3.96c0,.97,.45,1.8,1.34,2.49,.89,.69,1.98,1.03,3.26,1.03h18.36v-2.34h-19.3v-3.6h19.3v-2.86h-22.95v1.31Z"/>
      <path class="cls-1" d="M175.39,33.83c-1.28,0-2.37,.34-3.26,1.03-.46,.35-.79,.78-1.01,1.21h22.63v-2.24l-4.6,.02-13.76-.02Z"/>
      <path class="cls-1" d="M247.41,40.5v3.96c0,.97,.45,1.8,1.34,2.49,.89,.69,1.98,1.03,3.26,1.03h18.36v-2.34h-19.3v-3.6h19.3v-2.86h-22.95v1.31Z"/>
      <path class="cls-1" d="M252.01,33.83c-1.28,0-2.37,.34-3.26,1.03-.46,.35-.79,.78-1.01,1.21h22.63v-2.24l-4.6,.02-13.76-.02Z"/>
      <polygon class="cls-1" points="200.94 33.83 196.35 33.83 196.35 36.07 201.79 36.07 205.93 36.07 205.93 47.98 209.57 47.98 209.57 36.07 219.3 36.07 219.3 33.83 214.7 33.86 200.94 33.83"/>
      <polygon class="cls-1" points="226.49 33.83 221.9 33.83 221.9 36.07 227.35 36.07 231.48 36.07 231.48 47.98 235.12 47.98 235.12 36.07 244.85 36.07 244.85 33.83 240.25 33.86 226.49 33.83"/>
      <path class="cls-1" d="M295.95,38.76v-1.18c0-1.25-.44-2.19-1.31-2.81-.88-.62-1.97-.93-3.28-.91l-13.76-.02h-4.6v2.24h19.16v3.11h-19.16v8.8h3.65v-5.94h10.7l4.62,5.94h3.99l-4.62-5.94c1.54,0,2.69-.25,3.46-.75,.77-.5,1.16-1.3,1.16-2.53Z"/>
    </g>
  </g>
  <path class="cls-1" d="M25.84,16.67h8.32V53.18c0,6.24,2.51,11.9,6.57,16.03,3.18-3.93,5.09-8.93,5.09-14.37V0L25.84,16.67Z"/>
  <g>
    <path class="cls-1" d="M45.82,52.98v.21c0-.07,.02-.14,.02-.21h-.02Z"/>
    <path class="cls-1" d="M57.07,30.27c-3.24,0-6.3,.71-9.1,1.93v14.43c2.05-2.83,5.35-4.69,9.1-4.69,6.2,0,11.25,5.05,11.25,11.25s-5.05,11.25-11.25,11.25-11.25-5.05-11.25-11.25v1.67c0,5.44-1.91,10.43-5.09,14.37,4.16,4.24,9.94,6.88,16.34,6.88,12.63,0,22.91-10.28,22.91-22.91s-10.28-22.91-22.91-22.91Z"/>
  </g>
  <path class="cls-1" d="M38.98,70.35c-2.87-2.92-4.94-6.61-5.92-10.72-1.8,3.81-5.65,6.47-10.14,6.47-6.2,0-11.25-5.05-11.25-11.25V28.61L0,40.27v14.58c0,12.63,10.28,22.91,22.91,22.91,6.47,0,12.3-2.71,16.47-7.04-.13-.13-.27-.24-.4-.37Z"/>
  <circle class="cls-1" cx="57.07" cy="53.18" r="8.05"/>
</svg>